<svg width="49" height="49" viewBox="0 0 49 49" fill="none" xmlns="http://www.w3.org/2000/svg">
<path d="M24.4992 46.6887C36.7537 46.6887 46.6879 36.7545 46.6879 24.5C46.6879 12.2456 36.7537 2.31134 24.4992 2.31134C12.2448 2.31134 2.31055 12.2456 2.31055 24.5C2.31055 36.7545 12.2448 46.6887 24.4992 46.6887Z" stroke="white" stroke-width="4.62264"/>
<path d="M8.46962 33.8449C8.44497 33.771 8.43264 33.66 8.43264 33.5121L8.43264 24.8215C8.43264 22.8985 8.88874 21.1481 9.80094 19.5702C10.6885 17.9923 11.9212 16.7473 13.4991 15.8351C15.0523 14.9476 16.7904 14.5038 18.7134 14.5038C20.6364 14.5038 22.3869 14.9476 23.9647 15.8351C25.5179 16.7473 26.7506 17.9923 27.6628 19.5702C28.5504 21.1481 28.9942 22.8985 28.9942 24.8215C28.9942 26.7445 28.5627 28.4827 27.6998 30.0359C26.8123 31.6137 25.6165 32.8464 24.1126 33.734C22.5841 34.6462 20.883 35.1023 19.0092 35.1023C17.4067 35.1023 15.9398 34.7571 14.6085 34.0668C13.2772 33.4011 12.1801 32.4766 11.3172 31.2932L11.3172 42.1287C11.3172 42.5478 11.1816 42.893 10.9104 43.1642C10.6392 43.4354 10.294 43.571 9.87491 43.571C9.45579 43.571 9.12295 43.4354 8.87641 43.1642C8.60522 42.893 8.46962 42.5478 8.46962 42.1287V33.8449ZM18.7134 17.0925C17.3081 17.0925 16.0384 17.4253 14.9043 18.091C13.7703 18.7813 12.8827 19.7058 12.2417 20.8645C11.576 22.0479 11.2432 23.3669 11.2432 24.8215C11.2432 25.2406 11.2555 25.5488 11.2802 25.746C11.3048 25.7954 11.3172 25.857 11.3172 25.931C11.5637 27.854 12.3773 29.4318 13.7579 30.6645C15.1139 31.8972 16.7657 32.5136 18.7134 32.5136C20.1187 32.5136 21.4007 32.1808 22.5594 31.5151C23.6935 30.8494 24.5934 29.9249 25.2591 28.7415C25.9001 27.5828 26.2206 26.2761 26.2206 24.8215C26.2206 23.3669 25.9001 22.0479 25.2591 20.8645C24.5934 19.7058 23.6935 18.7813 22.5594 18.091C21.4007 17.4253 20.1187 17.0925 18.7134 17.0925Z" fill="white"/>
<path d="M40.2901 14.6004C40.3148 14.6744 40.3271 14.7853 40.3271 14.9332V23.6238C40.3271 25.5468 39.871 27.2973 38.9588 28.8751C38.0713 30.453 36.8386 31.698 35.2607 32.6102C33.7075 33.4978 31.9694 33.9415 30.0464 33.9415C28.1234 33.9415 26.3729 33.4978 24.795 32.6102C23.2418 31.698 22.0091 30.453 21.0969 28.8751C20.2094 27.2973 19.7656 25.5468 19.7656 23.6238C19.7656 21.7008 20.1971 19.9627 21.06 18.4095C21.9475 16.8316 23.1432 15.5989 24.6471 14.7113C26.1757 13.7991 27.8768 13.343 29.7505 13.343C31.353 13.343 32.82 13.6882 34.1513 14.3785C35.4826 15.0442 36.5797 15.9687 37.4426 17.1521V6.31662C37.4426 5.8975 37.5782 5.55234 37.8494 5.28115C38.1206 5.00995 38.4657 4.87436 38.8849 4.87436C39.304 4.87436 39.6368 5.00995 39.8834 5.28115C40.1545 5.55234 40.2901 5.8975 40.2901 6.31662V14.6004ZM30.0464 31.3528C31.4517 31.3528 32.7213 31.02 33.8554 30.3544C34.9895 29.664 35.8771 28.7395 36.5181 27.5808C37.1837 26.3974 37.5166 25.0784 37.5166 23.6238C37.5166 23.2047 37.5042 22.8965 37.4796 22.6993C37.4549 22.65 37.4426 22.5883 37.4426 22.5144C37.1961 20.5913 36.3825 19.0135 35.0018 17.7808C33.6459 16.5481 31.994 15.9317 30.0464 15.9317C28.6411 15.9317 27.3591 16.2645 26.2003 16.9302C25.0662 17.5959 24.1664 18.5204 23.5007 19.7038C22.8597 20.8625 22.5392 22.1692 22.5392 23.6238C22.5392 25.0784 22.8597 26.3974 23.5007 27.5808C24.1664 28.7395 25.0662 29.664 26.2003 30.3544C27.3591 31.02 28.6411 31.3528 30.0464 31.3528Z" fill="white"/>
</svg>
