<svg width="138" height="49" viewBox="0 0 138 49" fill="none" xmlns="http://www.w3.org/2000/svg">
<path d="M67.606 33C67.5327 33 67.4667 32.978 67.408 32.934C67.364 32.8753 67.342 32.8093 67.342 32.736V17.864C67.342 17.7907 67.364 17.732 67.408 17.688C67.4667 17.6293 67.5327 17.6 67.606 17.6H73.106C74.206 17.6 75.1667 17.798 75.988 18.194C76.824 18.5753 77.4693 19.118 77.924 19.822C78.3787 20.526 78.606 21.34 78.606 22.264V28.336C78.606 29.26 78.3787 30.074 77.924 30.778C77.4693 31.482 76.824 32.032 75.988 32.428C75.1667 32.8093 74.206 33 73.106 33H67.606ZM70.444 30.228C70.444 30.3013 70.4807 30.338 70.554 30.338H73.216C73.8907 30.338 74.4333 30.1107 74.844 29.656C75.2693 29.2013 75.4893 28.5927 75.504 27.83V22.77C75.504 22.0073 75.2913 21.3987 74.866 20.944C74.4553 20.4893 73.898 20.262 73.194 20.262H70.554C70.4807 20.262 70.444 20.2987 70.444 20.372V30.228ZM81.2056 33C81.1323 33 81.0663 32.978 81.0076 32.934C80.9636 32.8753 80.9416 32.8093 80.9416 32.736V17.864C80.9416 17.7907 80.9636 17.732 81.0076 17.688C81.0663 17.6293 81.1323 17.6 81.2056 17.6H83.7796C83.8529 17.6 83.9116 17.6293 83.9556 17.688C84.0143 17.732 84.0436 17.7907 84.0436 17.864V32.736C84.0436 32.8093 84.0143 32.8753 83.9556 32.934C83.9116 32.978 83.8529 33 83.7796 33H81.2056ZM90.8129 33C90.6662 33 90.5709 32.9267 90.5269 32.78L85.9949 17.908L85.9729 17.82C85.9729 17.6733 86.0536 17.6 86.2149 17.6H88.9869C89.1482 17.6 89.2509 17.6733 89.2949 17.82L92.2209 28.556C92.2356 28.6 92.2576 28.622 92.2869 28.622C92.3162 28.622 92.3382 28.6 92.3529 28.556L95.2349 17.82C95.2789 17.6733 95.3816 17.6 95.5429 17.6H98.2489C98.3369 17.6 98.4029 17.6293 98.4469 17.688C98.4909 17.7467 98.4982 17.82 98.4689 17.908L93.8709 32.78C93.8269 32.9267 93.7316 33 93.5849 33H90.8129ZM100.67 33C100.597 33 100.531 32.978 100.472 32.934C100.428 32.8753 100.406 32.8093 100.406 32.736V17.864C100.406 17.7907 100.428 17.732 100.472 17.688C100.531 17.6293 100.597 17.6 100.67 17.6H103.244C103.318 17.6 103.376 17.6293 103.42 17.688C103.479 17.732 103.508 17.7907 103.508 17.864V32.736C103.508 32.8093 103.479 32.8753 103.42 32.934C103.376 32.978 103.318 33 103.244 33H100.67ZM111.466 33.176C110.292 33.176 109.266 32.9927 108.386 32.626C107.506 32.2447 106.824 31.7093 106.34 31.02C105.87 30.316 105.636 29.502 105.636 28.578V28.094C105.636 28.0207 105.658 27.962 105.702 27.918C105.76 27.8593 105.826 27.83 105.9 27.83H108.408C108.481 27.83 108.54 27.8593 108.584 27.918C108.642 27.962 108.672 28.0207 108.672 28.094V28.424C108.672 29.0107 108.943 29.5093 109.486 29.92C110.028 30.316 110.762 30.514 111.686 30.514C112.463 30.514 113.042 30.3527 113.424 30.03C113.805 29.6927 113.996 29.282 113.996 28.798C113.996 28.446 113.878 28.1527 113.644 27.918C113.409 27.6687 113.086 27.456 112.676 27.28C112.28 27.0893 111.642 26.8327 110.762 26.51C109.779 26.1727 108.943 25.828 108.254 25.476C107.579 25.124 107.007 24.6473 106.538 24.046C106.083 23.43 105.856 22.6747 105.856 21.78C105.856 20.9 106.083 20.13 106.538 19.47C106.992 18.81 107.623 18.304 108.43 17.952C109.236 17.6 110.168 17.424 111.224 17.424C112.338 17.424 113.328 17.622 114.194 18.018C115.074 18.414 115.756 18.9713 116.24 19.69C116.738 20.394 116.988 21.2153 116.988 22.154V22.484C116.988 22.5573 116.958 22.6233 116.9 22.682C116.856 22.726 116.797 22.748 116.724 22.748H114.194C114.12 22.748 114.054 22.726 113.996 22.682C113.952 22.6233 113.93 22.5573 113.93 22.484V22.308C113.93 21.692 113.673 21.1713 113.16 20.746C112.661 20.306 111.972 20.086 111.092 20.086C110.402 20.086 109.86 20.2327 109.464 20.526C109.082 20.8193 108.892 21.2227 108.892 21.736C108.892 22.1027 109.002 22.4107 109.222 22.66C109.456 22.9093 109.794 23.1367 110.234 23.342C110.688 23.5327 111.385 23.7967 112.324 24.134C113.365 24.5153 114.179 24.8527 114.766 25.146C115.367 25.4393 115.902 25.8793 116.372 26.466C116.856 27.038 117.098 27.786 117.098 28.71C117.098 30.0887 116.592 31.1813 115.58 31.988C114.568 32.78 113.196 33.176 111.466 33.176ZM119.534 33C119.46 33 119.394 32.978 119.336 32.934C119.292 32.8753 119.27 32.8093 119.27 32.736V17.864C119.27 17.7907 119.292 17.732 119.336 17.688C119.394 17.6293 119.46 17.6 119.534 17.6H122.108C122.181 17.6 122.24 17.6293 122.284 17.688C122.342 17.732 122.372 17.7907 122.372 17.864V32.736C122.372 32.8093 122.342 32.8753 122.284 32.934C122.24 32.978 122.181 33 122.108 33H119.534ZM130.527 33.242C129.383 33.242 128.371 33.0073 127.491 32.538C126.626 32.0687 125.951 31.416 125.467 30.58C124.983 29.7293 124.741 28.754 124.741 27.654V22.946C124.741 21.8607 124.983 20.9 125.467 20.064C125.951 19.228 126.626 18.5827 127.491 18.128C128.371 17.6587 129.383 17.424 130.527 17.424C131.686 17.424 132.698 17.6587 133.563 18.128C134.443 18.5827 135.125 19.228 135.609 20.064C136.093 20.9 136.335 21.8607 136.335 22.946V27.654C136.335 28.754 136.093 29.7293 135.609 30.58C135.125 31.4307 134.443 32.0907 133.563 32.56C132.698 33.0147 131.686 33.242 130.527 33.242ZM130.527 30.58C131.334 30.58 131.986 30.3233 132.485 29.81C132.984 29.2967 133.233 28.6147 133.233 27.764V22.924C133.233 22.0733 132.984 21.3913 132.485 20.878C132.001 20.35 131.348 20.086 130.527 20.086C129.72 20.086 129.068 20.35 128.569 20.878C128.085 21.3913 127.843 22.0733 127.843 22.924V27.764C127.843 28.6147 128.085 29.2967 128.569 29.81C129.068 30.3233 129.72 30.58 130.527 30.58Z" fill="white"/>
<path d="M24.5 46.6887C36.7544 46.6887 46.6886 36.7545 46.6886 24.5C46.6886 12.2456 36.7544 2.31134 24.5 2.31134C12.2455 2.31134 2.31128 12.2456 2.31128 24.5C2.31128 36.7545 12.2455 46.6887 24.5 46.6887Z" stroke="white" stroke-width="4.62264"/>
<path d="M8.46864 33.8449C8.44399 33.771 8.43166 33.66 8.43166 33.5121L8.43166 24.8215C8.43166 22.8985 8.88776 21.1481 9.79996 19.5702C10.6875 17.9923 11.9202 16.7473 13.4981 15.8351C15.0513 14.9476 16.7894 14.5038 18.7124 14.5038C20.6354 14.5038 22.3859 14.9476 23.9637 15.8351C25.5169 16.7473 26.7497 17.9923 27.6619 19.5702C28.5494 21.1481 28.9932 22.8985 28.9932 24.8215C28.9932 26.7445 28.5617 28.4827 27.6988 30.0359C26.8113 31.6137 25.6156 32.8464 24.1117 33.734C22.5831 34.6462 20.882 35.1023 19.0083 35.1023C17.4058 35.1023 15.9388 34.7571 14.6075 34.0668C13.2762 33.4011 12.1791 32.4766 11.3162 31.2932L11.3162 42.1287C11.3162 42.5478 11.1806 42.893 10.9094 43.1642C10.6382 43.4354 10.293 43.571 9.87393 43.571C9.45481 43.571 9.12198 43.4354 8.87544 43.1642C8.60424 42.893 8.46864 42.5478 8.46864 42.1287V33.8449ZM18.7124 17.0925C17.3071 17.0925 16.0374 17.4253 14.9034 18.091C13.7693 18.7813 12.8817 19.7058 12.2407 20.8645C11.5751 22.0479 11.2422 23.3669 11.2422 24.8215C11.2422 25.2406 11.2546 25.5488 11.2792 25.746C11.3039 25.7954 11.3162 25.857 11.3162 25.931C11.5627 27.854 12.3763 29.4318 13.7569 30.6645C15.1129 31.8972 16.7647 32.5136 18.7124 32.5136C20.1177 32.5136 21.3997 32.1808 22.5585 31.5151C23.6925 30.8494 24.5924 29.9249 25.2581 28.7415C25.8991 27.5828 26.2196 26.2761 26.2196 24.8215C26.2196 23.3669 25.8991 22.0479 25.2581 20.8645C24.5924 19.7058 23.6925 18.7813 22.5585 18.091C21.3997 17.4253 20.1177 17.0925 18.7124 17.0925Z" fill="white"/>
<path d="M40.2909 14.6004C40.3155 14.6744 40.3279 14.7853 40.3279 14.9332V23.6238C40.3279 25.5468 39.8718 27.2973 38.9596 28.8751C38.072 30.453 36.8393 31.698 35.2614 32.6102C33.7082 33.4978 31.9701 33.9415 30.0471 33.9415C28.1241 33.9415 26.3736 33.4978 24.7958 32.6102C23.2426 31.698 22.0099 30.453 21.0977 28.8751C20.2101 27.2973 19.7663 25.5468 19.7663 23.6238C19.7663 21.7008 20.1978 19.9627 21.0607 18.4095C21.9482 16.8316 23.144 15.5989 24.6479 14.7113C26.1764 13.7991 27.8775 13.343 29.7513 13.343C31.3538 13.343 32.8207 13.6882 34.152 14.3785C35.4833 15.0442 36.5804 15.9687 37.4433 17.1521V6.31662C37.4433 5.8975 37.5789 5.55234 37.8501 5.28115C38.1213 5.00995 38.4665 4.87436 38.8856 4.87436C39.3047 4.87436 39.6375 5.00995 39.8841 5.28115C40.1553 5.55234 40.2909 5.8975 40.2909 6.31662V14.6004ZM30.0471 31.3528C31.4524 31.3528 32.7221 31.02 33.8562 30.3544C34.9902 29.664 35.8778 28.7395 36.5188 27.5808C37.1845 26.3974 37.5173 25.0784 37.5173 23.6238C37.5173 23.2047 37.505 22.8965 37.4803 22.6993C37.4557 22.65 37.4433 22.5883 37.4433 22.5144C37.1968 20.5913 36.3832 19.0135 35.0026 17.7808C33.6466 16.5481 31.9948 15.9317 30.0471 15.9317C28.6418 15.9317 27.3598 16.2645 26.2011 16.9302C25.067 17.5959 24.1671 18.5204 23.5014 19.7038C22.8604 20.8625 22.5399 22.1692 22.5399 23.6238C22.5399 25.0784 22.8604 26.3974 23.5014 27.5808C24.1671 28.7395 25.067 29.664 26.2011 30.3544C27.3598 31.02 28.6418 31.3528 30.0471 31.3528Z" fill="white"/>
</svg>
